<svg height="1726" width="720" xmlns="http://www.w3.org/2000/svg">
<rect height="1726" fill="#555" width="720"></rect>
<text fill="#7f7" font-family="Courier New" font-size="12" xml:space="preserve">
<tspan x="10" y="26">81 megabytes installed</tspan>
<tspan x="10" y="42"></tspan>
<tspan x="10" y="58">node_modules</tspan>
<tspan x="10" y="74">└─┬ screenshot-stream@4.1.0 </tspan>
<tspan x="10" y="90">  ├─┬ base64-stream@0.1.3 </tspan>
<tspan x="10" y="106">  │ └─┬ readable-stream@2.2.9 </tspan>
<tspan x="10" y="122">  │   ├── buffer-shims@1.0.0 </tspan>
<tspan x="10" y="138">  │   ├── core-util-is@1.0.2 </tspan>
<tspan x="10" y="154">  │   ├── inherits@2.0.3 </tspan>
<tspan x="10" y="170">  │   ├── isarray@1.0.0 </tspan>
<tspan x="10" y="186">  │   ├── process-nextick-args@1.0.7 </tspan>
<tspan x="10" y="202">  │   ├── string_decoder@1.0.0 </tspan>
<tspan x="10" y="218">  │   └── util-deprecate@1.0.2 </tspan>
<tspan x="10" y="234">  ├── byline@4.2.2 </tspan>
<tspan x="10" y="250">  ├── object-assign@4.1.1 </tspan>
<tspan x="10" y="266">  ├─┬ parse-cookie-phantomjs@1.2.0 </tspan>
<tspan x="10" y="282">  │ └─┬ tough-cookie@2.3.2 </tspan>
<tspan x="10" y="298">  │   └── punycode@1.4.1 </tspan>
<tspan x="10" y="314">  └─┬ phantom-bridge@2.0.1 </tspan>
<tspan x="10" y="330">    └─┬ phantomjs-prebuilt@2.1.14 </tspan>
<tspan x="10" y="346">      ├── es6-promise@4.0.5 </tspan>
<tspan x="10" y="362">      ├─┬ extract-zip@1.5.0 </tspan>
<tspan x="10" y="378">      │ ├─┬ concat-stream@1.5.0 </tspan>
<tspan x="10" y="394">      │ │ ├─┬ readable-stream@2.0.6 </tspan>
<tspan x="10" y="410">      │ │ │ └── string_decoder@0.10.31 </tspan>
<tspan x="10" y="426">      │ │ └── typedarray@0.0.6 </tspan>
<tspan x="10" y="442">      │ ├── debug@0.7.4 </tspan>
<tspan x="10" y="458">      │ ├─┬ mkdirp@0.5.0 </tspan>
<tspan x="10" y="474">      │ │ └── minimist@0.0.8 </tspan>
<tspan x="10" y="490">      │ └─┬ yauzl@2.4.1 </tspan>
<tspan x="10" y="506">      │   └─┬ fd-slicer@1.0.1 </tspan>
<tspan x="10" y="522">      │     └── pend@1.2.0 </tspan>
<tspan x="10" y="538">      ├─┬ fs-extra@1.0.0 </tspan>
<tspan x="10" y="554">      │ ├── graceful-fs@4.1.11 </tspan>
<tspan x="10" y="570">      │ ├── jsonfile@2.4.0 </tspan>
<tspan x="10" y="586">      │ └── klaw@1.3.1 </tspan>
<tspan x="10" y="602">      ├─┬ hasha@2.2.0 </tspan>
<tspan x="10" y="618">      │ ├── is-stream@1.1.0 </tspan>
<tspan x="10" y="634">      │ └─┬ pinkie-promise@2.0.1 </tspan>
<tspan x="10" y="650">      │   └── pinkie@2.0.4 </tspan>
<tspan x="10" y="666">      ├── kew@0.7.0 </tspan>
<tspan x="10" y="682">      ├── progress@1.1.8 </tspan>
<tspan x="10" y="698">      ├─┬ request@2.79.0 </tspan>
<tspan x="10" y="714">      │ ├── aws-sign2@0.6.0 </tspan>
<tspan x="10" y="730">      │ ├── aws4@1.6.0 </tspan>
<tspan x="10" y="746">      │ ├── caseless@0.11.0 </tspan>
<tspan x="10" y="762">      │ ├─┬ combined-stream@1.0.5 </tspan>
<tspan x="10" y="778">      │ │ └── delayed-stream@1.0.0 </tspan>
<tspan x="10" y="794">      │ ├── extend@3.0.0 </tspan>
<tspan x="10" y="810">      │ ├── forever-agent@0.6.1 </tspan>
<tspan x="10" y="826">      │ ├─┬ form-data@2.1.4 </tspan>
<tspan x="10" y="842">      │ │ └── asynckit@0.4.0 </tspan>
<tspan x="10" y="858">      │ ├─┬ har-validator@2.0.6 </tspan>
<tspan x="10" y="874">      │ │ ├─┬ chalk@1.1.3 </tspan>
<tspan x="10" y="890">      │ │ │ ├── ansi-styles@2.2.1 </tspan>
<tspan x="10" y="906">      │ │ │ ├── escape-string-regexp@1.0.5 </tspan>
<tspan x="10" y="922">      │ │ │ ├─┬ has-ansi@2.0.0 </tspan>
<tspan x="10" y="938">      │ │ │ │ └── ansi-regex@2.1.1 </tspan>
<tspan x="10" y="954">      │ │ │ ├── strip-ansi@3.0.1 </tspan>
<tspan x="10" y="970">      │ │ │ └── supports-color@2.0.0 </tspan>
<tspan x="10" y="986">      │ │ ├─┬ commander@2.9.0 </tspan>
<tspan x="10" y="1002">      │ │ │ └── graceful-readlink@1.0.1 </tspan>
<tspan x="10" y="1018">      │ │ └─┬ is-my-json-valid@2.16.0 </tspan>
<tspan x="10" y="1034">      │ │   ├── generate-function@2.0.0 </tspan>
<tspan x="10" y="1050">      │ │   ├─┬ generate-object-property@1.2.0 </tspan>
<tspan x="10" y="1066">      │ │   │ └── is-property@1.0.2 </tspan>
<tspan x="10" y="1082">      │ │   ├── jsonpointer@4.0.1 </tspan>
<tspan x="10" y="1098">      │ │   └── xtend@4.0.1 </tspan>
<tspan x="10" y="1114">      │ ├─┬ hawk@3.1.3 </tspan>
<tspan x="10" y="1130">      │ │ ├── boom@2.10.1 </tspan>
<tspan x="10" y="1146">      │ │ ├── cryptiles@2.0.5 </tspan>
<tspan x="10" y="1162">      │ │ ├── hoek@2.16.3 </tspan>
<tspan x="10" y="1178">      │ │ └── sntp@1.0.9 </tspan>
<tspan x="10" y="1194">      │ ├─┬ http-signature@1.1.1 </tspan>
<tspan x="10" y="1210">      │ │ ├── assert-plus@0.2.0 </tspan>
<tspan x="10" y="1226">      │ │ ├─┬ jsprim@1.4.0 </tspan>
<tspan x="10" y="1242">      │ │ │ ├── assert-plus@1.0.0 </tspan>
<tspan x="10" y="1258">      │ │ │ ├── extsprintf@1.0.2 </tspan>
<tspan x="10" y="1274">      │ │ │ ├── json-schema@0.2.3 </tspan>
<tspan x="10" y="1290">      │ │ │ └── verror@1.3.6 </tspan>
<tspan x="10" y="1306">      │ │ └─┬ sshpk@1.13.0 </tspan>
<tspan x="10" y="1322">      │ │   ├── asn1@0.2.3 </tspan>
<tspan x="10" y="1338">      │ │   ├── assert-plus@1.0.0 </tspan>
<tspan x="10" y="1354">      │ │   ├── bcrypt-pbkdf@1.0.1 </tspan>
<tspan x="10" y="1370">      │ │   ├─┬ dashdash@1.14.1 </tspan>
<tspan x="10" y="1386">      │ │   │ └── assert-plus@1.0.0 </tspan>
<tspan x="10" y="1402">      │ │   ├── ecc-jsbn@0.1.1 </tspan>
<tspan x="10" y="1418">      │ │   ├─┬ getpass@0.1.6 </tspan>
<tspan x="10" y="1434">      │ │   │ └── assert-plus@1.0.0 </tspan>
<tspan x="10" y="1450">      │ │   ├── jodid25519@1.0.2 </tspan>
<tspan x="10" y="1466">      │ │   ├── jsbn@0.1.1 </tspan>
<tspan x="10" y="1482">      │ │   └── tweetnacl@0.14.5 </tspan>
<tspan x="10" y="1498">      │ ├── is-typedarray@1.0.0 </tspan>
<tspan x="10" y="1514">      │ ├── isstream@0.1.2 </tspan>
<tspan x="10" y="1530">      │ ├── json-stringify-safe@5.0.1 </tspan>
<tspan x="10" y="1546">      │ ├─┬ mime-types@2.1.15 </tspan>
<tspan x="10" y="1562">      │ │ └── mime-db@1.27.0 </tspan>
<tspan x="10" y="1578">      │ ├── oauth-sign@0.8.2 </tspan>
<tspan x="10" y="1594">      │ ├── qs@6.3.2 </tspan>
<tspan x="10" y="1610">      │ ├── stringstream@0.0.5 </tspan>
<tspan x="10" y="1626">      │ ├── tunnel-agent@0.4.3 </tspan>
<tspan x="10" y="1642">      │ └── uuid@3.0.1 </tspan>
<tspan x="10" y="1658">      ├─┬ request-progress@2.0.1 </tspan>
<tspan x="10" y="1674">      │ └── throttleit@1.0.0 </tspan>
<tspan x="10" y="1690">      └─┬ which@1.2.14 </tspan>
<tspan x="10" y="1706">        └── isexe@2.0.0</tspan>
</text>
</svg>
